<svg width="491" height="423" viewBox="0 0 491 423" fill="none" xmlns="http://www.w3.org/2000/svg">
  <g clip-path="url(#clip0_110_453)">
    <path d="M121.832 135.858C121.832 135.858 69.3187 153.946 59.2477 170.643C49.1766 187.339 121.832 135.858 121.832 135.858Z" fill="#00AE81"/>
    <path d="M31.0985 193.755C30.7332 193.783 30.3663 193.731 30.0226 193.604C29.6789 193.477 29.3665 193.278 29.1064 193.02C27.4727 191.549 28.8079 188.766 29.9537 186.801C45.3173 160.463 122.566 132.708 125.846 131.539L132.911 129.023L126.862 133.455C126.638 133.619 104.165 150.07 81.1595 165.568C45.3933 189.664 34.7746 193.755 31.0985 193.755ZM118.981 136.462C98.6971 144.314 44.0334 167.011 31.8474 187.905C30.2244 190.687 30.5679 191.385 30.5721 191.391C30.9006 191.746 35.0517 193.969 79.6681 163.931C95.221 153.46 110.565 142.525 118.981 136.462V136.462Z" fill="#3F3D56"/>
    <path d="M120.694 117.791C120.694 117.791 72.301 112.817 57.6203 121.318C42.9397 129.82 120.694 117.791 120.694 117.791Z" fill="#00AE81"/>
    <path d="M54.7495 125.923C37.81 125.923 36.647 123.207 36.1142 121.965C35.0497 119.481 38.0122 117.142 38.9858 116.373C59.9909 99.7875 123.791 116.548 126.497 117.269L131.686 118.653L126.37 119.412C126.156 119.443 104.779 122.484 83.2074 124.387C70.6266 125.497 61.4523 125.923 54.7495 125.923ZM69.5942 111.308C57.6628 111.308 46.7478 113.036 40.3446 118.092C38.4124 119.617 37.933 120.647 38.1288 121.101C38.6199 122.246 43.3071 125.709 83.0148 122.205C97.8113 120.899 112.515 119.057 120.324 118.024C110.318 115.721 88.6585 111.308 69.5942 111.308Z" fill="#3F3D56"/>
    <path d="M134.543 109.268C134.543 109.268 110.202 50.8168 116.099 45.0311C121.997 39.2455 134.543 109.268 134.543 109.268Z" fill="#00AE81"/>
    <path d="M135.89 114.409L132.863 106.675C132.789 106.486 125.383 87.514 119.281 67.9821C106.711 27.7562 111.863 24.3211 113.556 23.1923C113.973 22.8928 114.464 22.7119 114.976 22.6687C115.488 22.6255 116.003 22.7215 116.465 22.9467C125.959 27.371 134.078 98.1044 134.973 106.155L135.89 114.409ZM115.223 24.8512C115.059 24.8592 114.902 24.9165 114.771 25.0155C108.722 29.0487 120.985 68.7562 131.765 97.6572C128.068 67.8569 121.259 27.5983 115.539 24.9325C115.441 24.8823 115.333 24.8545 115.223 24.8512Z" fill="#3F3D56"/>
    <path d="M143.744 122.121C143.744 122.121 156.808 63.0403 170.496 63.0403C184.183 63.0403 143.744 122.121 143.744 122.121Z" fill="#00AE81"/>
    <path d="M140.296 126.198L141.589 121.334C142.538 117.766 165.096 33.9645 189.757 33.9645C193.138 33.9645 194.596 35.5507 195.225 36.8812C201.801 50.8083 149.481 115.034 143.494 122.311L140.296 126.198ZM189.757 36.1558C170.073 36.1558 150.507 98.3724 145.142 116.812C162.796 94.8764 197.985 47.8584 193.244 37.8169C193.049 37.406 192.46 36.1558 189.757 36.1558Z" fill="#3F3D56"/>
    <path d="M151.412 122.711C151.412 122.711 196.331 94.3243 288.358 102.989C380.385 111.654 151.412 122.711 151.412 122.711Z" fill="#00AE81"/>
    <path d="M148.348 123.895L150.7 121.879C151.176 121.471 162.627 111.791 185.571 104.006C206.684 96.8413 241.879 90.0921 289.646 98.6239C309.827 102.228 312.447 104.914 312.272 107.279C312.099 109.615 311.692 115.088 231.059 120.162C191.656 122.641 151.842 123.794 151.444 123.806L148.348 123.895ZM246.294 96.8301C194.409 96.8301 163.734 115.267 154.84 121.509C165.369 121.172 198.291 120.028 230.926 117.974C305.853 113.26 310.013 108.103 310.086 107.117C310.095 107.011 310.039 104.491 289.261 100.781C275.083 98.1988 260.705 96.8767 246.294 96.8301Z" fill="#3F3D56"/>
    <path d="M179.897 126.04C179.897 126.04 258.578 124.989 262.998 133.391C267.418 141.793 179.897 126.04 179.897 126.04Z" fill="#00AE81"/>
    <path d="M273.073 147.509C247.959 147.509 187.592 129.474 179.579 127.046L173.013 125.057L179.872 124.902C189.937 124.677 278.363 123.206 283.925 141.009C284.584 143.118 283.82 144.471 283.063 145.235C281.479 146.832 277.937 147.509 273.073 147.509ZM187.074 126.993C223.98 137.81 275.225 150.032 281.507 143.692C281.848 143.349 282.192 142.808 281.835 141.663C277.883 129.015 217.573 126.786 187.074 126.993Z" fill="#3F3D56"/>
    <path d="M164.559 134.763C164.559 134.763 212.083 156.73 202.796 163.489C193.51 170.248 164.559 134.763 164.559 134.763Z" fill="#00AE81"/>
    <path d="M232.407 190.066C209.418 190.066 162.611 134.768 160.434 132.181L157.353 128.518L161.721 130.476C164.908 131.905 239.801 165.665 241.44 182.576C241.657 184.819 240.673 186.78 238.594 188.248C236.775 189.49 234.609 190.126 232.407 190.066ZM165.337 134.534C183.412 155.272 223.627 196.134 237.33 186.458C238.789 185.428 239.402 184.262 239.26 182.787C238.081 170.629 189.14 145.558 165.337 134.534Z" fill="#3F3D56"/>
    <path d="M243.44 161.058C243.44 161.058 282.88 177.492 274.115 188.448C265.351 199.405 243.44 161.058 243.44 161.058Z" fill="#00AE81"/>
    <path d="M170.037 147.91C170.037 147.91 252.204 237.752 244.535 243.23C236.866 248.708 170.037 147.91 170.037 147.91Z" fill="#00AE81"/>
    <path d="M154.699 141.336C154.699 141.336 189.294 198.957 182.234 204.559C175.173 210.161 154.699 141.336 154.699 141.336Z" fill="#00AE81"/>
    <path d="M193.856 226.143C193.424 226.14 192.996 226.068 192.587 225.93C179.905 221.764 154.343 146.92 151.47 138.399L148.915 130.822L153.414 137.433C153.548 137.631 166.994 157.423 178.927 177.899C200.986 215.753 199.157 223.196 195.863 225.502C195.277 225.92 194.575 226.144 193.856 226.143ZM156.333 145.77C165.657 172.24 184.428 220.943 193.271 223.849C193.487 223.94 193.724 223.975 193.957 223.95C194.191 223.925 194.415 223.841 194.607 223.707C196.417 222.44 198.329 215.548 177.038 179.011C169.485 166.049 161.32 153.357 156.333 145.77H156.333Z" fill="#3F3D56"/>
    <path d="M140.064 139.145C140.064 139.145 108.929 231.022 128.034 230.075C147.14 229.128 140.064 139.145 140.064 139.145Z" fill="#00AE81"/>
    <path d="M120.284 245.43C116.931 245.43 114.353 244.119 112.615 241.53C100.289 223.158 136.803 142.133 138.363 138.693L140.029 135.021L140.45 139.031C140.796 142.312 148.704 219.632 130.79 240.288C127.958 243.552 124.589 245.279 120.777 245.42C120.612 245.427 120.447 245.43 120.284 245.43ZM138.656 143.459C131.438 160.058 104.241 225.116 114.435 240.309C115.824 242.38 117.872 243.34 120.696 243.231C123.923 243.111 126.683 241.679 129.135 238.852C144.109 221.585 140.064 160.142 138.656 143.459Z" fill="#3F3D56"/>
    <path d="M129.31 143.712C129.31 143.712 77.0464 203.492 81.8295 209.789C86.6126 216.085 129.31 143.712 129.31 143.712Z" fill="#00AE81"/>
    <path d="M66.1063 231.581C65.4142 231.593 64.7388 231.369 64.1901 230.947C63.8177 230.644 63.5141 230.265 63.2997 229.836C63.0853 229.406 62.9651 228.936 62.9469 228.456C61.6342 213.605 131.203 136.22 134.165 132.933L141.168 125.162L135.927 134.216C133.693 138.074 81.0612 228.74 66.8884 231.502C66.6308 231.554 66.3689 231.58 66.1063 231.581ZM128.403 142.705C105.353 168.885 64.218 217.953 65.1295 228.263C65.1215 228.443 65.1539 228.622 65.2242 228.787C65.2946 228.952 65.4012 229.099 65.5361 229.218C65.6709 229.31 65.8252 229.37 65.987 229.393C66.1487 229.417 66.3136 229.402 66.469 229.352C76.2638 227.443 110.48 172.87 128.403 142.705H128.403Z" fill="#3F3D56"/>
    <path d="M113.623 103.458C113.623 103.458 68.0584 49.6318 25.9234 54.8483C-16.2115 60.0648 113.623 103.458 113.623 103.458Z" fill="#00AE81"/>
    <path d="M119.697 105.973L116.111 105.153C115.823 105.087 87.0247 98.4821 58.5529 90.0557C0.250539 72.8011 0.0622379 64.8669 0.00128341 62.26C-0.0736096 59.1143 3.12857 56.6812 9.79074 54.8217C34.5147 47.9199 62.4312 61.5147 81.4902 74.1375C94.2889 82.6924 106.229 92.4669 117.143 103.324L119.697 105.973ZM23.9399 55.14C19.3591 55.1168 14.7966 55.72 10.3791 56.9327C5.05323 58.4188 2.14633 60.2923 2.19129 62.2081C2.44057 72.7273 67.098 91.4852 112.823 102.145C102.014 91.7757 61.1773 55.14 23.9399 55.14H23.9399Z" fill="#3F3D56"/>
    <path d="M78.0098 99.7024C78.0098 99.7024 17.7539 95.3199 22.1362 106.276C26.5184 117.232 78.0098 99.7024 78.0098 99.7024Z" fill="#00AE81"/>
    <path d="M93.3477 59.1641C93.3477 59.1641 90.0611 43.8252 84.5832 47.1121C79.1054 50.399 93.3477 59.1641 93.3477 59.1641Z" fill="#00AE81"/>
    <path d="M148.856 70.0173C148.856 70.0173 163.889 6.84173 157.075 6.60996C150.262 6.37819 148.856 70.0173 148.856 70.0173Z" fill="#00AE81"/>
    <path d="M146.058 84.0046L145.935 75.6146C145.895 72.9199 145.06 9.51776 153.302 1.15181C153.617 0.799809 154 0.51602 154.429 0.317929C154.858 0.119839 155.323 0.0116385 155.795 0C156.253 0.00187067 156.704 0.111685 157.112 0.320535C157.52 0.529386 157.873 0.831399 158.142 1.20209C164.484 9.32623 149.79 69.0777 148.093 75.8644L146.058 84.0046ZM155.795 2.19126C155.686 2.19126 155.354 2.19126 154.863 2.68986C149.419 8.21509 148.156 44.9717 148.082 66.5885C154.116 40.8304 160.266 7.48217 156.415 2.55077C156.351 2.4431 156.26 2.3536 156.152 2.2907C156.043 2.22781 155.92 2.19359 155.795 2.19126Z" fill="#3F3D56"/>
    <path d="M218.242 78.8854C218.242 78.8854 224.815 62.451 231.389 66.8335C237.962 71.216 218.242 78.8854 218.242 78.8854Z" fill="#00AE81"/>
    <path d="M155.795 224.604C155.795 224.604 147.03 289.246 163.464 288.151C179.897 287.055 155.795 224.604 155.795 224.604Z" fill="#00AE81"/>
    <path d="M201.641 209.904C201.641 209.904 193.243 195.907 193.243 186.11C193.243 186.11 178.548 170.714 182.747 166.515C186.945 162.316 196.043 178.412 196.043 178.412C196.043 178.412 179.248 159.516 184.146 156.717C189.045 153.918 205.14 174.912 205.14 174.912L210.738 172.113C210.738 172.113 198.847 142.784 207.239 142.021C211.088 141.671 219.835 170.014 219.835 170.014L228.932 193.108C228.932 193.108 232.431 201.506 231.032 206.405C230.179 209.4 229.478 212.436 228.932 215.502L201.641 209.904Z" fill="#FFB9B9"/>
    <path opacity="0.1" d="M223.334 213.403C223.334 213.403 228.232 205.705 226.46 193.95C224.687 182.196 214.937 175.612 214.937 175.612C214.937 175.612 208.639 180.511 214.937 193.108C214.937 193.108 207.239 200.106 213.537 211.303" fill="black"/>
    <path d="M226.133 213.403C226.133 213.403 231.032 205.705 229.259 193.95C227.486 182.196 217.736 175.612 217.736 175.612C217.736 175.612 211.438 180.511 217.736 193.108C217.736 193.108 210.038 200.106 216.336 211.303" fill="#FFB9B9"/>
    <path opacity="0.1" d="M206.889 174.563L203.04 168.614C203.04 168.614 184.846 165.815 186.946 172.113C189.045 178.412 197.442 175.612 197.442 175.612L202.341 180.511L206.889 174.563Z" fill="black"/>
    <path d="M210.038 174.213L204.44 166.515C204.44 166.515 186.246 163.715 188.345 170.014C190.444 176.312 198.842 173.513 198.842 173.513L203.74 178.412L210.038 174.213Z" fill="#FFB9B9"/>
    <path d="M339.848 266.239L336.349 294.232L390.932 297.731V264.14L339.848 266.239Z" fill="#FFB9B9"/>
    <path d="M491 423L446.735 334.464C444.091 325.707 435.833 311.444 410.175 302.28L390.931 286L376.586 285.485L319.204 277.087C319.204 277.087 275.118 274.287 246.427 291.783L238.729 288.284C238.729 288.284 226.133 243.495 231.731 211.303L199.541 208.504C199.541 208.504 182.047 284.785 190.444 307.879C198.842 330.973 229.632 347.769 229.632 347.769L256.923 375.062L267.42 422.65H431.169L433.774 410.164L446.564 422.65L491 423Z" fill="#CFCCE0"/>
    <path d="M429.11 264.144C377.554 278.066 326.882 279.05 277.281 264.358C271.451 262.631 267.464 257.511 267.464 251.701V106.798C267.464 100.314 272.397 94.7835 279.12 93.7291C325.911 86.3907 375.479 86.9591 427.323 94.0031C434.173 94.9338 439.259 100.528 439.259 107.113V251.394C439.259 257.327 435.107 262.524 429.11 264.144Z" fill="#CFCCE0"/>
    <path d="M322.786 164.987C322.786 164.987 310.928 147.655 318.225 143.094C325.523 138.533 336.468 151.304 336.468 151.304C336.468 151.304 350.151 139.445 357.448 144.006C364.745 148.567 350.151 164.987 350.151 164.987C350.151 164.987 361.097 167.724 362.009 175.021C362.921 182.319 366.57 201.475 351.063 202.388C342.756 202.876 338.114 200.485 335.594 198.16C334.677 197.337 333.492 196.876 332.261 196.862C331.029 196.847 329.834 197.28 328.898 198.08C323.639 202.511 314.169 207.617 307.279 195.09C304.543 175.933 322.786 164.987 322.786 164.987Z" fill="#3F3D56"/>
    <path d="M410.353 166.811C410.353 166.811 422.211 149.479 414.914 144.918C407.617 140.357 396.671 153.128 396.671 153.128C396.671 153.128 382.989 141.269 375.691 145.83C368.394 150.391 382.989 166.811 382.989 166.811C382.989 166.811 372.043 169.548 371.131 176.846C370.218 184.143 366.57 203.3 382.076 204.212C390.384 204.701 395.026 202.31 397.546 199.984C398.463 199.162 399.647 198.701 400.879 198.686C402.11 198.672 403.305 199.105 404.242 199.905C409.5 204.335 418.97 209.442 425.86 196.914C428.596 177.758 410.353 166.811 410.353 166.811Z" fill="#3F3D56"/>
    <path d="M308.39 214.181C308.39 214.181 325.501 227.958 361.988 227.089C398.476 226.221 410.275 224.731 418.074 216.13C425.873 207.53 428.185 217.463 425.763 223.975C423.342 230.486 420.231 241.598 402.054 243.399C390.088 244.584 364.224 244.865 347.947 244.919C335.296 245.024 322.787 242.241 311.373 236.782C311.222 236.709 311.071 236.635 310.922 236.562C307.459 234.851 304.544 232.207 302.505 228.927C300.467 225.647 299.386 221.863 299.384 218.001C299.386 214.932 299.926 213.274 301.923 212.67C305.523 211.581 308.39 214.181 308.39 214.181Z" fill="#3F3D56"/>
    <path d="M360.732 277.301C332.844 277.315 305.115 273.109 278.487 264.823C275.193 263.814 272.31 261.773 270.265 259.001C268.219 256.229 267.119 252.872 267.126 249.427V79.6726C267.115 75.8506 268.467 72.15 270.94 69.236C273.413 66.322 276.844 64.3857 280.617 63.7754C330.869 55.4923 386.513 55.5997 446.003 64.0946C449.832 64.6602 453.332 66.5802 455.867 69.5062C458.402 72.4321 459.804 76.1701 459.818 80.0414V249.068C459.804 252.576 458.651 255.985 456.532 258.782C454.414 261.579 451.445 263.612 448.072 264.577C418.941 272.844 390.141 277.124 362.473 277.295C361.895 277.299 361.311 277.301 360.732 277.301ZM358.793 58.8317C332.676 58.7445 306.595 60.7905 280.81 64.9493C277.316 65.5145 274.138 67.3077 271.848 70.0065C269.557 72.7054 268.305 76.1328 268.315 79.6726V249.427C268.309 252.618 269.328 255.727 271.223 258.295C273.119 260.863 275.789 262.753 278.84 263.687C332.006 280.239 388.834 280.153 447.747 263.432L447.909 264.004L447.747 263.432C450.872 262.54 453.622 260.656 455.584 258.066C457.547 255.476 458.615 252.318 458.628 249.068V80.0414C458.615 76.456 457.317 72.9941 454.97 70.2842C452.622 67.5742 449.381 65.7958 445.834 65.2719C417.009 61.0722 387.923 58.92 358.793 58.8317V58.8317Z" fill="#3F3D56"/>
    <path d="M355.14 84.0012C342.036 84.0012 330.822 83.4134 321.641 82.6168C292.764 80.112 277.204 75.0568 277.05 75.006L277.423 73.8763C277.575 73.9268 293.042 78.9469 321.8 81.4366C348.341 83.7352 391.957 84.2852 449.006 73.8559L449.22 75.0263C411.74 81.8777 380.034 84.0012 355.14 84.0012Z" fill="#3F3D56"/>
  </g>
  <defs>
    <clipPath id="clip0_110_453">
      <rect width="491" height="423" fill="white"/>
    </clipPath>
  </defs>
</svg>
