<svg xmlns="http://www.w3.org/2000/svg" xmlns:xlink="http://www.w3.org/1999/xlink" xmlns:krita="http://krita.org/namespaces/svg/krita" xmlns:sodipodi="http://sodipodi.sourceforge.net/DTD/sodipodi-0.dtd" viewBox="0 219.94 639.2 336.5">
<defs/>
<path id="shape0" transform="matrix(0.719999993648075 0 0 0.719999993648075 0 524.247125577949)" fill="#e6e6e6" stroke-opacity="0" stroke="#000000" stroke-width="0" stroke-linecap="square" stroke-linejoin="bevel" d="M887.772 35.129L252.263 44.71L0 0L393.817 0L887.772 35.129Z" sodipodi:nodetypes="cccccc"/><path id="shape1" transform="matrix(0.719999993648075 0 0 0.719999993648075 129.485043657668 508.035571972249)" fill="#3f3d56" stroke-opacity="0" stroke="#000000" stroke-width="0" stroke-linecap="square" stroke-linejoin="bevel" d="M0 27.8299C0 27.8299 1.487 -3.32882 31.9712 0.292927" sodipodi:nodetypes="cc"/><circle id="shape2" transform="matrix(0.719999993648075 0 0 0.719999993648075 112.298247809292 484.753873126363)" r="15.25711" cx="15.25711" cy="15.25711" fill="#00ae81" stroke-opacity="0" stroke="#000000" stroke-width="0" stroke-linecap="square" stroke-linejoin="bevel"/><rect id="shape3" transform="matrix(0.719999993648075 0 0 0.719999993648075 121.495923728149 514.237275266257)" fill="#3f3d56" stroke-opacity="0" stroke="#000000" stroke-width="0" stroke-linecap="square" stroke-linejoin="bevel" width="4.30672" height="30.14703"/><path id="shape4" transform="matrix(0.719999993648075 0 0 0.719999993648075 491.246455666166 511.867787398085)" fill="#3f3d56" stroke-opacity="0" stroke="#000000" stroke-width="0" stroke-linecap="square" stroke-linejoin="bevel" d="M0 27.8299C0 27.8299 1.487 -3.32881 31.9712 0.292925" sodipodi:nodetypes="cc"/><circle id="shape5" transform="matrix(0.719999993648075 0 0 0.719999993648075 474.05965981779 488.586094692555)" r="15.25711" cx="15.25711" cy="15.25711" fill="#00ae81" stroke-opacity="0" stroke="#000000" stroke-width="0" stroke-linecap="square" stroke-linejoin="bevel"/><rect id="shape6" transform="matrix(0.719999993648075 0 0 0.719999993648075 483.257335736647 518.069489632449)" fill="#3f3d56" stroke-opacity="0" stroke="#000000" stroke-width="0" stroke-linecap="square" stroke-linejoin="bevel" width="4.30672" height="30.14703"/><path id="shape7" transform="matrix(0.719999993648075 0 0 0.719999993648075 544.131067199612 515.700008964276)" fill="#3f3d56" stroke-opacity="0" stroke="#000000" stroke-width="0" stroke-linecap="square" stroke-linejoin="bevel" d="M0 27.8299C0 27.8299 1.487 -3.32881 31.9712 0.292925" sodipodi:nodetypes="cc"/><circle id="shape8" transform="matrix(0.719999993648075 0 0 0.719999993648075 526.944271351236 492.418309058747)" r="15.25711" cx="15.25711" cy="15.25711" fill="#00ae81" stroke-opacity="0" stroke="#000000" stroke-width="0" stroke-linecap="square" stroke-linejoin="bevel"/><rect id="shape9" transform="matrix(0.719999993648075 0 0 0.719999993648075 536.141954470093 521.90171119864)" fill="#3f3d56" stroke-opacity="0" stroke="#000000" stroke-width="0" stroke-linecap="square" stroke-linejoin="bevel" width="4.30672" height="30.14703"/><path id="shape10" transform="matrix(0.719999993648075 0 0 0.719999993648075 216.093180493601 497.305385914425)" fill="#3f3d56" stroke-opacity="0" stroke="#000000" stroke-width="0" stroke-linecap="square" stroke-linejoin="bevel" d="M0 27.8299C0 27.8299 1.487 -3.32886 31.9712 0.292933" sodipodi:nodetypes="cc"/><circle id="shape11" transform="matrix(0.719999993648075 0 0 0.719999993648075 198.906384645225 474.023662821026)" r="15.25711" cx="15.25711" cy="15.25711" fill="#00ae81" stroke-opacity="0" stroke="#000000" stroke-width="0" stroke-linecap="square" stroke-linejoin="bevel"/><rect id="shape12" transform="matrix(0.719999993648075 0 0 0.719999993648075 208.104060564081 503.50706496092)" fill="#3f3d56" stroke-opacity="0" stroke="#000000" stroke-width="0" stroke-linecap="square" stroke-linejoin="bevel" width="4.30672" height="30.14703"/><path id="shape13" transform="matrix(0.719999993648075 0 0 0.719999993648075 52.8406771338333 501.137591492748)" fill="#3f3d56" stroke-opacity="0" stroke="#000000" stroke-width="0" stroke-linecap="square" stroke-linejoin="bevel" d="M0 27.8299C0 27.8299 1.487 -3.32881 31.9712 0.292925" sodipodi:nodetypes="cc"/><circle id="shape14" transform="matrix(0.719999993648075 0 0 0.719999993648075 35.6538812854573 477.855884387218)" r="15.25711" cx="15.25711" cy="15.25711" fill="#00ae81" stroke-opacity="0" stroke="#000000" stroke-width="0" stroke-linecap="square" stroke-linejoin="bevel"/><rect id="shape15" transform="matrix(0.719999993648075 0 0 0.719999993648075 44.8515572043143 507.339279327112)" fill="#3f3d56" stroke-opacity="0" stroke="#000000" stroke-width="0" stroke-linecap="square" stroke-linejoin="bevel" width="4.30672" height="30.14703"/><circle id="shape16" transform="matrix(0.719999993648075 0 0 0.719999993648075 198.75502624656 242.822657660709)" r="166.22823" cx="166.22823" cy="166.22823" fill="#3f3d56" stroke-opacity="0" stroke="#000000" stroke-width="0" stroke-linecap="square" stroke-linejoin="bevel"/><path id="shape17" transform="matrix(0.719999993648075 0 0 0.719999993648075 232.19634890311 311.451721948288)" fill="#ffffff" stroke-opacity="0" stroke="#000000" stroke-width="0" stroke-linecap="square" stroke-linejoin="bevel" d="M15.131 84.2538C20.6521 77.644 27.9947 72.7991 36.2434 70.3229C44.492 67.8467 53.289 67.8467 61.5377 70.3229C69.7863 72.7991 77.1289 77.644 82.6501 84.2538C90.7401 76.5307 95.9401 66.2605 97.3764 55.1685C98.8127 44.0765 96.4002 32.8206 90.5441 23.2916C84.688 13.7626 75.7356 6.52578 65.191 2.79676C54.6463 -0.932254 43.1348 -0.932254 32.5901 2.79676C22.0454 6.52578 13.0931 13.7626 7.23701 23.2916C1.3809 32.8206 -1.03163 44.0765 0.40467 55.1685C1.84097 66.2605 7.04092 76.5307 15.131 84.2538Z" sodipodi:nodetypes="ccccccccccc"/><path id="shape18" transform="matrix(0.719999993648075 0 0 0.719999993648075 327.239786065138 311.451749353804)" fill="#ffffff" stroke-opacity="0" stroke="#000000" stroke-width="0" stroke-linecap="square" stroke-linejoin="bevel" d="M15.131 84.2537C20.6521 77.644 27.9947 72.799 36.2434 70.3229C44.492 67.8467 53.289 67.8467 61.5376 70.3229C69.7863 72.799 77.1289 77.644 82.65 84.2537C90.7401 76.5306 95.94 66.2605 97.3763 55.1685C98.8126 44.0765 96.4001 32.8206 90.544 23.2916C84.6879 13.7626 75.7356 6.52578 65.1909 2.79676C54.6463 -0.932254 43.1347 -0.932254 32.5901 2.79676C22.0454 6.52578 13.0931 13.7626 7.237 23.2916C1.3809 32.8206 -1.03163 44.0765 0.404672 55.1685C1.84098 66.2605 7.04093 76.5306 15.131 84.2537Z" sodipodi:nodetypes="ccccccccccc"/><circle id="shape19" transform="matrix(0.719999993648075 0 0 0.719999993648075 243.280437853751 322.557156157282)" r="16.81788" cx="16.81788" cy="16.81788" fill="#3f3d56" stroke-opacity="0" stroke="#000000" stroke-width="0" stroke-linecap="square" stroke-linejoin="bevel"/><circle id="shape20" transform="matrix(0.719999993648075 0 0 0.719999993648075 338.320437015297 322.557156157282)" r="16.81788" cx="16.81788" cy="16.81788" fill="#3f3d56" stroke-opacity="0" stroke="#000000" stroke-width="0" stroke-linecap="square" stroke-linejoin="bevel"/><circle id="shape21" transform="matrix(0.719999993648075 0 0 0.719999993648075 218.115732475757 378.347558065092)" r="19.55626" cx="19.55626" cy="19.55626" fill="#ff6584" stroke-opacity="0" stroke="#000000" stroke-width="0" stroke-linecap="square" stroke-linejoin="bevel"/><circle id="shape22" transform="matrix(0.719999993648075 0 0 0.719999993648075 380.041578247229 378.347558065092)" r="19.55626" cx="19.55626" cy="19.55626" fill="#ff6584" stroke-opacity="0" stroke="#000000" stroke-width="0" stroke-linecap="square" stroke-linejoin="bevel"/><path id="shape23" transform="matrix(0.719999993648075 0 0 0.719999993648075 302.598717330439 364.266726989315)" fill="#ff6584" stroke-opacity="0" stroke="#000000" stroke-width="0" stroke-linecap="square" stroke-linejoin="bevel" d="M14.667 0L0 63.558L24.445 39.113L14.667 0Z" sodipodi:nodetypes="ccccc"/><path id="shape24" transform="matrix(0.719999993648075 0 0 0.719999993648075 328.725357099946 469.817286058135)" fill="#3f3d56" stroke-opacity="0" stroke="#000000" stroke-width="0" stroke-linecap="square" stroke-linejoin="bevel" d="M53.744 97.856L37.092 83.88L37.48 97.856L32.308 97.856L31.895 83.078L9.412 97.856L0 97.856L31.727 77.002L30.498 33.213L29.58 0.142L34.739 0L35.67 33.213L36.898 76.963L61.785 97.856L53.744 97.856Z" sodipodi:nodetypes="cccccccccccccccc"/><path id="shape25" transform="matrix(0.719999993648075 0 0 0.719999993648075 272.408397596781 469.817286058135)" fill="#3f3d56" stroke-opacity="0" stroke="#000000" stroke-width="0" stroke-linecap="square" stroke-linejoin="bevel" d="M53.731 97.856L37.079 83.88L37.467 97.856L32.309 97.856L31.895 83.078L9.412 97.856L0 97.856L31.714 77.002L30.486 33.213L29.568 0.142L34.739 0L35.67 33.213L36.885 76.963L61.773 97.856L53.731 97.856Z" sodipodi:nodetypes="cccccccccccccccc"/><path id="shape26" transform="matrix(0.719999993648075 0 0 0.719999993648075 281.477999916768 219.941871462566)" fill="#3f3d56" stroke-opacity="0" stroke="#000000" stroke-width="0" stroke-linecap="square" stroke-linejoin="bevel" d="M53.7798 19.5562C49.2186 19.5562 45.1949 23.0992 42.5048 28.5412C40.1337 20.358 35.1521 14.6672 29.3344 14.6672C28.939 14.7065 28.5467 14.7724 28.1602 14.8644C25.9239 6.12744 20.7266 0 14.6672 0C6.5667 0 0 10.9446 0 24.4453C0 37.9461 6.5667 48.8907 14.6672 48.8907C15.0626 48.8514 15.4549 48.7855 15.8414 48.6934C18.0777 57.4304 23.275 63.5579 29.3344 63.5579C33.8955 63.5579 37.9192 60.0149 40.6094 54.5729C42.9805 62.756 47.9621 68.4469 53.7798 68.4469C61.8803 68.4469 68.447 57.5023 68.447 44.0015C68.447 30.5008 61.8803 19.5562 53.7798 19.5562Z" sodipodi:nodetypes="ccccccccccccc"/><path id="shape27" transform="matrix(-0.719999993648075 0 0 -0.719999993648075 206.10022138176 407.862057004712)" fill="#00ae81" stroke-opacity="0" stroke="#000000" stroke-width="0" stroke-linecap="square" stroke-linejoin="bevel" d="M0 0L0 0C12.9616 5.68434e-14 25.4056 5.15448 34.5709 14.3197C43.7361 23.485 48.8906 35.929 48.8906 48.8906L48.8906 73.336C48.8906 86.2977 43.7361 98.7417 34.5709 107.907C25.4056 117.072 12.9616 122.227 0 122.227L0 122.227L0 122.227L0 0Z" sodipodi:nodetypes="ccccccccccc"/><path id="shape28" transform="matrix(0.719999993648075 0 0 0.719999993648075 430.778487399622 319.858876981068)" fill="#00ae81" stroke-opacity="0" stroke="#000000" stroke-width="0" stroke-linecap="square" stroke-linejoin="bevel" d="M0 2.55795e-11L0 2.55795e-11C8.58146 -8.77616e-06 17.0136 2.25936 24.4453 6.55008C31.8771 10.8408 38.0498 17.0135 42.3405 24.4453C46.6313 31.877 48.8907 40.3091 48.8907 48.8906L48.8907 73.336C48.8907 86.2976 43.7362 98.7416 34.5709 107.907C25.4057 117.072 12.9617 122.227 5e-05 122.227L5e-05 122.227L5e-05 122.227L5e-05 2.55795e-11Z" sodipodi:nodetypes="cccccccccccc"/><path id="shape29" transform="matrix(0.719999993648075 0 0 0.719999993648075 181.138347201976 223.782941828679)" fill="#00ae81" stroke-opacity="0" stroke="#000000" stroke-width="0" stroke-linecap="square" stroke-linejoin="bevel" d="M372.342 186.171L364.585 186.171C364.585 87.7934 284.549 7.75712 186.171 7.75712C87.7934 7.75712 7.75712 87.7934 7.75712 186.171L0 186.171C0 83.5159 83.5159 0 186.171 0C288.826 -5.68434e-14 372.342 83.5159 372.342 186.171Z" sodipodi:nodetypes="ccccccc"/>
</svg>